<svg xmlns="http://www.w3.org/2000/svg" width="40" height="41" fill="none" viewBox="0 0 40 41"><g fill="#000" clip-path="url(#a)"><path d="M13.7.36c1 .3 1.4 1 1.3 2.1v4.5c0 1-.7 1.8-1.7 1.8-.9 0-1.7-.7-1.7-1.7v-5c0-.9.5-1.4 1.3-1.7h.8ZM0 13.36c.4-1 1.1-1.3 2.1-1.3h4.5c1.3 0 2.1 1.2 1.6 2.3-.3.7-.8 1-1.5 1H1.6c-.9 0-1.4-.5-1.6-1.3v-.7ZM40 27.36c-.4 1-1.1 1.4-2.1 1.3h-4.4c-1.2 0-2-.9-1.7-2 .2-.7.8-1.3 1.5-1.3h5.1c.9 0 1.3.6 1.6 1.3v.7ZM26.3 40.36c-1-.3-1.4-1-1.3-2.1v-4.5c0-1 .7-1.8 1.7-1.8.9 0 1.7.7 1.7 1.8v4.4c0 1-.3 1.8-1.3 2.1-.3.1-.5.1-.8.1ZM21.3 27.26c-2.3 0-4.3-.7-5.9-2.3-.5-.5-.7-1.1-.4-1.8.2-.7.7-1 1.4-1.1.5-.1 1 .2 1.4.5 1 .9 2.1 1.5 3.4 1.5 1.3 0 2.5-.5 3.4-1.5 3.6-3.5 7.1-7.1 10.6-10.6 1.5-1.5 1.9-3.5 1.1-5.2-.9-2-2.5-3.3-4.8-3.3-1.4 0-2.5.6-3.5 1.6l-5.6 5.6c-.7.7-1.8.7-2.5 0-.6-.7-.6-1.6.1-2.3 1-1 1.9-2 2.9-2.9l2.7-2.7c3.6-3.6 10.8-3 13.2 2.1 1.5 3.1 1 7.3-1.6 9.9-3.4 3.3-6.7 6.7-10 10a7.64 7.64 0 0 1-5.9 2.5Z"/><path d="M18.2 14.36c1.8 0 3.8.7 5.4 2.3.5.5.6 1.1.4 1.8-.2.6-.7 1-1.4 1.1-.6.1-1-.1-1.4-.5-.8-.7-1.6-1.3-2.7-1.5-1.7-.3-3 .3-4.2 1.4l-3 3c-2.2 2.2-4.3 4.4-6.5 6.5a4.83 4.83 0 0 0 .2 7.3c2.1 2 4.8 1.9 6.9-.1l4.7-4.7c.5-.5 1.1-.7 1.8-.4.6.2 1 .7 1.1 1.4.1.5-.1.9-.4 1.3-1.7 1.7-3.3 3.5-5.1 5.1-2.5 2.2-5.4 2.5-8.5 1.5-2.9-1-4.6-3.1-5.2-6.2-.5-2.9.2-5.5 2.4-7.7l9-9c1.7-1.7 3.7-2.6 6.5-2.6ZM5 3.66c.5 0 .8.2 1.2.5 1.7 1.7 3.4 3.3 5 5 .7.7.6 1.7 0 2.4-.6.6-1.7.6-2.3 0-1.7-1.7-3.4-3.4-5-5.1-.6-.5-.7-1.1-.4-1.8.2-.6.8-1 1.5-1ZM30 28.66c.5 0 .8.2 1.2.5 1.7 1.7 3.4 3.3 5 5 .7.7.6 1.7 0 2.3-.6.6-1.7.6-2.3 0-1.7-1.7-3.4-3.3-5-5-.5-.5-.6-1.2-.3-1.8.2-.6.7-.9 1.4-1Z"/></g><defs><clipPath id="a"><path fill="#fff" d="M0 .36h40v40H0z"/></clipPath></defs></svg>