<svg xmlns="http://www.w3.org/2000/svg" width="48" height="55" fill="none" viewBox="0 0 48 55"><g clip-path="url(#a)"><path fill="#FFE17F" d="M24 48.36a24 24 0 1 0 0-48 24 24 0 0 0 0 48Z"/><path fill="#000" d="M24.1 16.56a5.7 5.7 0 0 0-5.6 5.8c0 .6.1 1.1.2 1.6.1.4.3.9.5 1.2.8 1.7 2 3.3 4.3 6 .2.2.7.6 1.3-.1 4.8-5.4 4.8-8.1 4.8-8.1v-.7c.1-3.1-2.4-5.7-5.5-5.7Z"/><path fill="#000" d="M24 .36c-13.3 0-24 10.7-24 24 0 11.9 8.7 21.8 20.1 23.7l4 6.3 4-6.4A23.88 23.88 0 0 0 48 24.36c0-13.3-10.7-24-24-24Zm9 22.4s.1 4.3-8.1 13c-.8.8-1.6 0-1.6 0-3.8-4.4-5.8-6.9-7.1-9.6-.3-.6-.6-1.2-.8-1.9-.2-.8-.4-1.6-.4-2.5 0-5 4.1-9.1 9.1-9.1s9.1 4.1 9.1 9.1c-.1.3-.2.6-.2 1Z"/></g><defs><clipPath id="a"><path fill="#fff" d="M0 .36h48v54H0z"/></clipPath></defs></svg>