<svg xmlns="http://www.w3.org/2000/svg" width="60" height="60" fill="none" viewBox="0 0 60 60"><circle cx="30" cy="30" r="29" stroke="#000" stroke-opacity=".6" stroke-width="2"/><path fill="#000" fill-opacity=".6" d="M13.56 28.32V34h-2.3v-9.94h1.83l4.6 5.85v-5.85H20V34H18.1l-4.55-5.68Zm18.12 3.66V34h-6.99v-9.94h6.86v2.02h-4.56V28h3.92v1.86h-3.92v2.11h4.69Zm7.47-7.9h2.11l1.04 3.17 1.03-3.18h2.13l-1.7 4.62 1.02 2.65 2.49-7.28h2.5L45.9 34h-2l-1.6-3.9-1.6 3.9h-2l-3.86-9.94h2.49l2.5 7.28.98-2.65-1.66-4.62Z"/></svg>