<svg xmlns="http://www.w3.org/2000/svg" width="160" height="160" fill="none" viewBox="0 0 160 160"><path fill="#363636" d="M97.35 37.49c0-.74-.58-1.49-1.31-1.49H53.05c-.73 0-1.38.75-1.38 1.49v3.52h45.68V37.5ZM98.2 117.8h-9.6v-10.37h-6.95v2.5H62.77a3.49 3.49 0 0 0-3.18-2.15H47.56a3.59 3.59 0 0 0-3.56 3.53v3.02a3.55 3.55 0 0 0 3.56 3.48h12.03c1.51 0 2.8-.9 3.27-2.33h18.79v2.33h-9.52c-.53 0-1.01.44-1.01.97v3.17c0 .54.48 1.05 1.01 1.05H98.2c.53 0 .93-.51.93-1.05v-3.17c0-.53-.4-.97-.93-.97ZM104.67 48.39a7.04 7.04 0 0 0-6.78-5.05H51.15A7.1 7.1 0 0 0 44 50.36v46.9a7.18 7.18 0 0 0 7.15 7.12h46.74c3.9 0 7.13-3.2 7.13-7.12V86.92a23.3 23.3 0 0 0-.36-38.53ZM56.24 98.15a5.91 5.91 0 1 1 .02-11.82 5.91 5.91 0 0 1-.02 11.82Zm5.96-32.6c0 .78-.64 1.42-1.42 1.42h-8.94c-.78 0-1.42-.64-1.42-1.42V51.39c0-.79.64-1.43 1.42-1.43h8.94c.78 0 1.42.64 1.42 1.43v14.16Zm29.56 22.3A20.1 20.1 0 0 1 71.7 67.75 20.1 20.1 0 0 1 91.77 47.6a20.1 20.1 0 0 1 20.06 20.13 20.1 20.1 0 0 1-20.06 20.12Z"/><path fill="#363636" d="M91.76 79.96a12.2 12.2 0 0 0 12.19-12.22A12.2 12.2 0 0 0 91.76 55.5a12.2 12.2 0 0 0-12.19 12.23 12.2 12.2 0 0 0 12.2 12.22ZM75.56 69.17a1.44 1.44 0 1 0 0-2.87 1.44 1.44 0 0 0 0 2.87ZM107.96 69.17a1.43 1.43 0 1 0 0-2.87 1.43 1.43 0 0 0 0 2.87ZM83.1 55.43a1.44 1.44 0 1 0 0-2.87 1.44 1.44 0 0 0 0 2.87ZM100.42 82.91a1.43 1.43 0 1 0-.01-2.86 1.43 1.43 0 0 0 0 2.86ZM99.7 55a1.43 1.43 0 1 0 0-2.87 1.43 1.43 0 0 0 0 2.87ZM83.83 83.34a1.44 1.44 0 1 0 0-2.87 1.44 1.44 0 0 0 0 2.87Z"/></svg>