<svg xmlns="http://www.w3.org/2000/svg" width="160" height="160" fill="none" viewBox="0 0 160 160"><path fill="#363636" d="M124.97 51.07a10.4 10.4 0 0 1 1.2 4.82V77c0 4.62-3.09 8.53-7.24 9.9-1.33 4-3.78 7.86-8.05 10.44-8.68 5.23-31.13 4.83-31.2 4.83-.08 0-22.51.4-31.19-4.83a18.73 18.73 0 0 1-8.04-10.28 10.5 10.5 0 0 1-7.76-10.06V55.9c0-1.68.43-3.28 1.14-4.69-3.66.9-7.83 2.72-7.83 6.23v29.99c0 10.25 11.84 24.43 53.66 24.43 41.82 0 53.65-14.18 53.65-24.43V57.43c0-3.68-4.57-5.49-8.34-6.36Z"/><path fill="#363636" d="M46.56 85.46h65.52c5.57 0 10.08-4.51 10.08-10.08V56.94c0-5.57-4.51-10.08-10.08-10.08H46.56A10.08 10.08 0 0 0 36.5 56.94v18.44c0 5.57 4.5 10.08 10.07 10.08Zm63.13-29a1.57 1.57 0 1 1 0 3.15 1.57 1.57 0 0 1 0-3.14Zm0 4.05a1.57 1.57 0 1 1 0 3.14 1.57 1.57 0 0 1 0-3.14Zm0 4.04a1.57 1.57 0 1 1 0 3.13 1.57 1.57 0 0 1 0-3.13Zm0 3.82a1.57 1.57 0 1 1 0 3.14 1.57 1.57 0 0 1 0-3.14Zm0 4.04a1.57 1.57 0 1 1 0 3.14 1.57 1.57 0 0 1 0-3.14Zm-4.03-15.94a1.57 1.57 0 1 1 0 3.14 1.57 1.57 0 0 1 0-3.14Zm0 15.94a1.57 1.57 0 1 1 0 3.14 1.57 1.57 0 0 1 0-3.14Zm-4.04-15.94a1.57 1.57 0 1 1 0 3.14 1.57 1.57 0 0 1 0-3.14Zm0 4.04a1.57 1.57 0 1 1 0 3.14 1.57 1.57 0 0 1 0-3.14Zm0 4.04a1.57 1.57 0 1 1 0 3.13 1.57 1.57 0 0 1 0-3.13Zm0 3.82a1.57 1.57 0 1 1 0 3.14 1.57 1.57 0 0 1 0-3.14Zm0 4.04a1.57 1.57 0 1 1 0 3.14 1.57 1.57 0 0 1 0-3.14Zm-7.66-15.94a1.57 1.57 0 1 1 0 3.14 1.57 1.57 0 0 1 0-3.14Zm0 8.08a1.57 1.57 0 1 1 0 3.13 1.57 1.57 0 0 1 0-3.13Zm0 3.88a1.57 1.57 0 1 1 0 3.13 1.57 1.57 0 0 1 0-3.13Zm0 3.98a1.57 1.57 0 1 1 0 3.14 1.57 1.57 0 0 1 0-3.14Zm-4.03-15.94a1.57 1.57 0 1 1 0 3.14 1.57 1.57 0 0 1 0-3.14Zm0 8.08a1.57 1.57 0 1 1 0 3.13 1.57 1.57 0 0 1 0-3.13Zm0 7.86a1.57 1.57 0 1 1 0 3.14 1.57 1.57 0 0 1 0-3.14Zm-4.04-15.94a1.57 1.57 0 1 1 0 3.14 1.57 1.57 0 0 1 0-3.14Zm0 4.04a1.57 1.57 0 1 1 0 3.14 1.57 1.57 0 0 1 0-3.14Zm0 4.04a1.57 1.57 0 1 1 0 3.14 1.57 1.57 0 0 1 0-3.14Zm0 7.86a1.57 1.57 0 1 1 0 3.14 1.57 1.57 0 0 1 0-3.14Zm-8.3-15.94a1.57 1.57 0 1 1 0 3.14 1.57 1.57 0 0 1 0-3.14Zm0 4.04a1.57 1.57 0 1 1 0 3.14 1.57 1.57 0 0 1 0-3.14Zm0 4.04a1.57 1.57 0 1 1 0 3.13 1.57 1.57 0 0 1 0-3.13Zm0 3.88a1.57 1.57 0 1 1 .01 3.13 1.57 1.57 0 0 1 0-3.13Zm0 3.98a1.57 1.57 0 1 1 0 3.14 1.57 1.57 0 0 1 0-3.14Zm-4.03-11.9a1.57 1.57 0 1 1 0 3.13 1.57 1.57 0 0 1 0-3.13Zm-8.5-.21a1.57 1.57 0 1 1 0 3.14 1.57 1.57 0 0 1 0-3.14Zm0 4.03a1.57 1.57 0 1 1 0 3.14 1.57 1.57 0 0 1 0-3.14Zm-4.04-8.07a1.57 1.57 0 1 1 0 3.13 1.57 1.57 0 0 1 0-3.13Zm0 4.04a1.57 1.57 0 1 1 0 3.13 1.57 1.57 0 0 1 0-3.13Zm0 4.03a1.57 1.57 0 1 1 0 3.14 1.57 1.57 0 0 1 0-3.14Zm0 4.04a1.57 1.57 0 1 1 0 3.14 1.57 1.57 0 0 1 0-3.14Zm-4.26-8.07a1.57 1.57 0 1 1 0 3.13 1.57 1.57 0 0 1 0-3.13Zm0 4.03a1.57 1.57 0 1 1 0 3.14 1.57 1.57 0 0 1 0-3.14Zm0 4.04a1.57 1.57 0 1 1 0 3.14 1.57 1.57 0 0 1 0-3.14Zm0 4.04a1.57 1.57 0 1 1 0 3.14 1.57 1.57 0 0 1 0-3.14ZM52.3 56.26a1.57 1.57 0 1 1 0 3.14 1.57 1.57 0 0 1 0-3.14Zm0 4.04a1.57 1.57 0 1 1 0 3.14 1.57 1.57 0 0 1 0-3.14Zm0 4.03a1.57 1.57 0 1 1 0 3.15 1.57 1.57 0 0 1 0-3.15Zm0 4.04a1.57 1.57 0 1 1 0 3.15 1.57 1.57 0 0 1 0-3.15Zm-4.04-8.07a1.57 1.57 0 1 1 0 3.14 1.57 1.57 0 0 1 0-3.14Zm0 4.03a1.57 1.57 0 1 1 0 3.14 1.57 1.57 0 0 1 0-3.14Z"/></svg>