<svg xmlns="http://www.w3.org/2000/svg" width="160" height="160" fill="none" viewBox="0 0 160 160"><path fill="#363636" d="M119.82 47.01H40.33a3.19 3.19 0 0 0-3.19 3.19V96.6a3.19 3.19 0 0 0 3.19 3.2h79.5a3.19 3.19 0 0 0 3.18-3.2V50.2a3.19 3.19 0 0 0-3.19-3.19ZM45.4 80.24h-.22a3.19 3.19 0 0 1-3.2-3.2v-7.28a3.19 3.19 0 0 1 3.2-3.18h.22v13.66Zm61.23 15.17H50.34v-44h56.28v44Zm8.78-17.86a4.15 4.15 0 1 1 0-8.29 4.15 4.15 0 0 1 0 8.3ZM91.65 43H68.5v2.76h23.15V43ZM83.6 107.86v-2.97h8.05v-2.76H68.5v2.76h8.04v35.24a6.07 6.07 0 0 0-3.63 5.56V160h14.33v-14.3c0-2.5-1.5-4.63-3.63-5.56v-28h4.8l5.04 1.22v-6.71l-5.05 1.21h-4.8Z"/></svg>